<svg width="47" height="7" viewBox="0 0 47 7" fill="none" xmlns="http://www.w3.org/2000/svg">
<path d="M0.94751 6.86695V0.769043H5.08866V1.87775H2.23723V5.75824H5.15007V6.86695H0.94751ZM1.56166 4.30439V3.22182H4.66752V4.30439H1.56166Z" fill="white"/>
<path d="M6.48862 6.87546V0.769043H7.66429L11.0685 5.38693H10.8316C10.7906 5.09937 10.7555 4.81464 10.7263 4.53272C10.697 4.24516 10.6766 3.94069 10.6649 3.6193C10.659 3.29791 10.6561 2.93987 10.6561 2.54519V0.769043H11.937V6.87546H10.7438L7.27825 2.41832L7.74325 2.34318C7.78419 2.71531 7.71985 3.15473 7.74325 3.39718C7.76665 3.63963 7.73366 2.85557 7.74536 3.01908C7.75706 3.17696 7.76372 4.24798 7.76957 4.37202C7.77542 4.49607 7.77835 4.62575 7.77835 4.76107V6.87546H6.48862Z" fill="white"/>
<path d="M13.0811 6.86696L15.5135 0.769057H16.6892L19.0647 6.86696H17.7223L16.4962 3.59394C16.4611 3.49809 16.4172 3.37968 16.3646 3.23872C16.3178 3.09776 16.2681 2.94835 16.2154 2.79047C16.1628 2.6326 16.1131 2.48318 16.0663 2.34222C16.0253 2.19562 15.9902 2.07722 15.961 1.987L16.1979 1.97854C16.1628 2.10259 16.1218 2.23509 16.075 2.37605C16.0341 2.51137 15.9873 2.65233 15.9347 2.79893C15.8879 2.94553 15.8382 3.08649 15.7855 3.22181C15.7387 3.35713 15.6919 3.48681 15.6451 3.61086L14.3884 6.86696H13.0811ZM14.2238 5.53918L14.6625 4.50736H17.4613L17.9087 5.53918H14.2238Z" fill="white"/>
<path d="M22.9193 6.87542C22.4397 6.87542 22.004 6.7993 21.6121 6.64707C21.2202 6.49483 20.8809 6.28057 20.5943 6.00429C20.3077 5.72801 20.0855 5.40381 19.9275 5.03167C19.7755 4.65954 19.6994 4.2564 19.6994 3.82224C19.6994 3.38809 19.7784 2.98494 19.9363 2.61281C20.1001 2.24068 20.3282 1.91929 20.6207 1.64865C20.919 1.37237 21.267 1.15811 21.6647 1.00587C22.0625 0.853634 22.4982 0.777516 22.972 0.777516C23.2995 0.777516 23.6125 0.819804 23.9108 0.90438C24.2091 0.988955 24.481 1.10454 24.7267 1.25114C24.9724 1.39774 25.1742 1.56689 25.3321 1.75859L24.5161 2.58744C24.288 2.37882 24.0453 2.21812 23.7879 2.10535C23.5306 1.98695 23.2527 1.92775 22.9544 1.92775C22.6795 1.92775 22.4251 1.97567 22.1911 2.07152C21.963 2.16174 21.7612 2.29424 21.5858 2.46903C21.4161 2.63818 21.2816 2.83834 21.1822 3.06952C21.0886 3.30069 21.0418 3.5516 21.0418 3.82224C21.0418 4.08724 21.0915 4.33533 21.1909 4.56651C21.2962 4.79768 21.4366 5.00066 21.6121 5.17545C21.7934 5.3446 22.004 5.47992 22.2438 5.58141C22.4836 5.67727 22.7409 5.72519 23.0159 5.72519C23.2089 5.72519 23.3902 5.697 23.5598 5.64062C23.7353 5.5786 23.8874 5.49684 24.016 5.39535C24.1506 5.29386 24.2559 5.17545 24.3319 5.04013C24.4079 4.90481 24.446 4.75821 24.446 4.60034V4.39736L24.6127 4.63417H22.8755V3.56851H25.7006C25.7123 3.63054 25.7211 3.70665 25.7269 3.79687C25.7327 3.88708 25.7357 3.97448 25.7357 4.05905C25.7415 4.14363 25.7444 4.21411 25.7444 4.27049C25.7444 4.6539 25.6743 5.0063 25.5339 5.32769C25.3935 5.64344 25.1946 5.9169 24.9373 6.14807C24.6799 6.37925 24.3787 6.55967 24.0336 6.68936C23.6885 6.8134 23.3171 6.87542 22.9193 6.87542Z" fill="white"/>
<path d="M27.4208 6.86696V0.769057H30.1406C30.5267 0.769057 30.8718 0.850814 31.1759 1.01433C31.4859 1.17784 31.6517 1.31303 31.833 1.60059C32.0143 1.88251 32.1849 2.43237 32.1849 2.79886C32.1849 3.15408 32.0942 3.47547 31.9129 3.76302C31.7316 4.05058 31.4859 4.27894 31.1759 4.44809C30.8718 4.61724 30.5267 4.70181 30.1406 4.70181H28.6842V6.86696H27.4208ZM30.9127 6.86696L29.351 4.14362L30.6934 3.93218L32.4305 6.87542L30.9127 6.86696ZM28.6842 3.66153H30.088C30.2459 3.66153 30.3834 3.6277 30.5003 3.56004C30.6232 3.48674 30.7168 3.38807 30.7811 3.26403C30.8513 3.13998 30.8864 2.99902 30.8864 2.84115C30.8864 2.67764 30.8454 2.53386 30.7636 2.40981C30.6817 2.28013 30.5676 2.18146 30.4214 2.1138C30.2752 2.0405 30.1055 2.00385 29.9125 2.00385H28.6842V3.66153Z" fill="white"/>
<path d="M33.589 6.73166L36.0017 0.769057H37.1774L39.5726 6.73166H38.2302L36.9844 3.50085C36.9493 3.405 36.9054 3.28659 36.8528 3.14563C36.806 3.00467 36.7562 2.85526 36.7036 2.69738C36.651 2.53951 36.6013 2.39009 36.5545 2.24913C36.5135 2.10253 36.4784 1.98413 36.4492 1.89391L36.6861 1.88546C36.651 2.0095 36.61 2.142 36.5632 2.28296C36.5223 2.41828 36.4755 2.55924 36.4228 2.70584C36.3761 2.85244 36.3263 2.9934 36.2737 3.12872C36.2269 3.26404 36.1801 3.39372 36.1333 3.51777L34.8962 6.73166H33.589ZM34.712 5.44609L35.1507 4.41427H37.9495L38.3969 5.44609H34.712Z" fill="white"/>
<path d="M40.9287 6.8856V0.769057H42.1307L44.3591 4.41426L43.5783 4.4058L45.8419 0.769057H47V6.8856H45.7103V4.82868C45.7103 4.31558 45.722 3.85324 45.7454 3.44164C45.7746 3.03003 45.8214 2.62407 45.8858 2.22375L46.0349 2.62125L44.2363 5.3023H43.6485L41.8938 2.63817L42.0341 2.22375C42.1043 2.60152 42.1511 2.99057 42.1745 3.39089C42.2038 3.79122 42.2184 4.27048 42.2184 4.82868V6.8856H40.9287Z" fill="white"/>
</svg>
